# AST/ASF file generated using VICON BodyLanguage
# -----------------------------------------------
:version 1.10
:name VICON
:units
  mass 1.0
  length 0.45
  angle deg
:documentation
   .ast/.asf automatically generated from VICON data using
   VICON BodyBuilder and BodyLanguage model FoxedUp or BRILLIANT.MOD
:root
   order TX TY TZ RX RY RZ
   axis XYZ
   position 0 0 0  
   orientation 0 0 0 
:bonedata
  begin
     id 1 
     name lhipjoint
     direction 0.578396 -0.714046 0.394458 
     length 2.21935 
     axis 0 0 0  XYZ
  end
  begin
     id 2 
     name lfemur
     direction 0.34202 -0.939693 0  
     length 6.39105  
     axis 0 0 20  XYZ
    dof rx ry rz
    limits (-160.0 20.0)
           (-70.0 70.0)
           (-60.0 70.0)
  end
  begin
     id 3 
     name ltibia
     direction 0.34202 -0.939693 0   
     length 6.99037   
     axis 0 0 20   XYZ
    dof rx
    limits (-10.0 170.0)
  end
  begin
     id 4 
     name lfoot
     direction 0.0582372 -0.160005 0.985397   
     length 2.06111   
     axis -90 7.62852e-016 20   XYZ
    dof rx rz
    limits (-45.0 90.0)
           (-70.0 20.0)
  end
  begin
     id 5 
     name ltoes
     direction 1.53556e-011 -4.21875e-011 1   
     length 1.04074   
     axis -90 7.62852e-016 20   XYZ
    dof rx
    limits (-90.0 20.0)
  end
  begin
     id 6 
     name rhipjoint
     direction -0.558179 -0.726269 0.40121   
     length 2.182  
     axis 0 0 0  XYZ 
  end
  begin
     id 7 
     name rfemur
     direction -0.34202 -0.939693 0   
     length 6.51172   
     axis 0 0 -20   XYZ
    dof rx ry rz
    limits (-160.0 20.0)
           (-70.0 70.0)
           (-70.0 60.0)
  end
  begin
     id 8 
     name rtibia
     direction -0.34202 -0.939693 0   
     length 7.02607   
     axis 0 0 -20   XYZ
    dof rx
    limits (-10.0 170.0)
 end
 begin
     id 9 
     name rfoot
     direction -0.0788856 -0.216737 0.973038   
     length 1.96734  
     axis -90 -7.62852e-016 -20   XYZ
    dof rx rz
    limits (-45.0 90.0)
           (-20.0 70.0)
  end
  begin
     id 10 
     name rtoes
     direction -1.53567e-011 -4.21783e-011 1   
     length 0.990825   
     axis -90 -7.62852e-016 -20   XYZ
    dof rx
    limits (-90.0 20.0)
  end
  begin
     id 11 
     name lowerback
     direction 0.00668177 0.999323 -0.0361741   
     length 1.7655   
     axis 0 0 0   XYZ
    dof rx ry rz
    limits (-20.0 45.0)
           (-30.0 30.0)
           (-30.0 30.0)
  end
  begin
     id 12 
     name upperback
     direction -0.00222086 0.99851 0.0545167   
     length 1.74912   
     axis 0 0 0   XYZ
    dof rx ry rz
    limits (-20.0 45.0)
           (-30.0 30.0)
           (-30.0 30.0)
  end
  begin
     id 13 
     name thorax
     direction -0.00733971 0.997496 0.0703443   
     length 1.75715   
     axis 0 0 0   XYZ
    dof rx ry rz
    limits (-20.0 45.0)
           (-30.0 30.0)
           (-30.0 30.0)
  end
  begin
     id 14 
     name lowerneck
     direction 0.0279797 0.994795 0.0979765   
     length 1.46939   
     axis 0 0 0   XYZ
    dof rx ry rz
    limits (-20.0 45.0)
           (-30.0 30.0)
           (-30.0 30.0)
  end
  begin
     id 15 
     name upperneck
     direction 0.00339187 0.976776 -0.214238   
     length 1.48018   
     axis 0 0 0   XYZ
    dof rx ry rz
    limits (-20.0 45.0)
           (-30.0 30.0)
           (-30.0 30.0)
  end
  begin
     id 16
     name head
     direction -0.00263506 0.996603 -0.0823096  
     length 1.4976  
     axis 0 0 0   XYZ
    dof rx ry rz
    limits (-20.0 45.0)
           (-30.0 30.0)
           (-30.0 30.0)
  end
  begin
     id 17 
     name lclavicle
     direction 0.894044 0.44508 -0.0508781  
     length 3.03024  
     axis 0 0 0   XYZ
    dof ry rz
    limits (-20.0 10.0)
           (0.0 20.0)
  end
  begin
     id 18 
     name lhumerus
     direction 1 -4.48961e-011 -2.39475e-018   
     length 4.4661   
     axis 180 -30 -90   XYZ
    dof rx ry rz
    limits (-60.0 90.0)
           (-90.0 90.0)
           (-90.0 90.0)
  end
  begin
     id 19
     name lradius
     direction 1 -4.48961e-011 9.29328e-028   
     length 3.41414   
     axis 180 -30 -90   XYZ
    dof rx
    limits (-10.0 170.0)
  end
  begin
     id 20
     name lwrist
     direction 1 -4.48985e-011 1.53461e-026   
     length 1.70707   
     axis -1.09697e-014 90 90   XYZ
    dof ry
    limits (-180.0 0.0)
 end
  begin
     id 21 
     name lhand
     direction 1 -4.48966e-011 3.06923e-026   
     length 0.328298   
     axis -1.95843e-014 90 90   XYZ
    dof rx rz
    limits (-90.0 90.0)
           (-45.0 45.0)
  end
  begin
     id 22 
     name lfingers
     direction 1 -4.48893e-011 6.13845e-026   
     length 0.264682   
     axis -3.91686e-014 90 90   XYZ
    dof rx
    limits (0.0 90.0)
  end
  begin
     id 23
     name lthumb
     direction 0.707107 -6.34876e-011 0.707107   
     length 0.380032   
     axis -90 45 2.85299e-015   XYZ
    dof rx rz
    limits (-45.0 45.0)
           (-45.0 45.0)
  end
  begin
     id 24 
     name rclavicle
     direction -0.936955 0.347862 -0.0332887   
     length 3.26927  
     axis 0 0 0   XYZ 
    dof ry rz
    limits (-10.0 20.0)
           (-20.0 0.0)
  end
  begin
     id 25 
     name rhumerus
     direction -1 -4.4896e-011 1.78637e-018  
     length 4.40431   
     axis 180 30 90   XYZ
    dof rx ry rz
    limits (-90.0 60.0)
           (-90.0 90.0)
           (-90.0 90.0)
  end
  begin
     id 26 
     name rradius
     direction -1 -4.48955e-011 9.34036e-027   
     length 3.04688   
     axis 180 30 90   XYZ
    dof rx
    limits (-10.0 170.0)
  end
  begin
     id 27 
     name rwrist
     direction -1 -4.49011e-011 1.53461e-026   
     length 1.52344   
     axis -1.09697e-014 -90 -90   XYZ
    dof ry
    limits (-180.0 0.0)
  end
  begin
     id 28
     name rhand
     direction -1 -4.48834e-011 3.06923e-026   
     length 0.500489   
     axis -1.95843e-014 -90 -90   XYZ
    dof rx rz
    limits (-90.0 90.0)
           (-45.0 45.0)
  end
  begin
     id 29
     name rfingers
     direction -1 -4.48967e-011 6.13845e-026   
     length 0.403507   
     axis -3.91686e-014 -90 -90   XYZ
    dof rx
    limits (0.0 90.0)
  end
  begin
     id 30
     name rthumb
     direction -0.707107 -6.34826e-011 0.707107   
     length 0.579358   
     axis -90 -45 -2.85299e-015   XYZ
    dof rx rz
    limits (-45.0 45.0)
           (-45.0 45.0)
  end
:hierarchy
  begin
    root lhipjoint rhipjoint lowerback
    lhipjoint lfemur
    lfemur ltibia
    ltibia lfoot
    lfoot ltoes
    rhipjoint rfemur
    rfemur rtibia
    rtibia rfoot
    rfoot rtoes
    lowerback upperback
    upperback thorax
    thorax lowerneck lclavicle rclavicle
    lowerneck upperneck
    upperneck head
    lclavicle lhumerus
    lhumerus lradius
    lradius lwrist
    lwrist lhand lthumb
    lhand lfingers
    rclavicle rhumerus
    rhumerus rradius
    rradius rwrist
    rwrist rhand rthumb
    rhand rfingers
  end

#!OML:ASF H:\IndianDance\Patient Classification 1\Patient 1\Session 1\dancer.ASF
:FULLY-SPECIFIED
:DEGREES
774
root -0.437437 14.2935 9.28572 -359.202 -20.2647 0.720999
lowerback 8.68405 7.57253 9.4117
upperback -4.40698 11.6936 4.72355
thorax -8.74523 5.25407 -1.88995
lowerneck -18.5492 -2.66325 -3.47674
upperneck 27.1003 -2.43477 -0.93544
head 12.0351 -1.57477 -0.143086
rclavicle 7.95139e-015 -2.06736e-014
rhumerus 17.7902 46.1874 -65.4566
rradius 68.2475
rwrist 8.5365
rhand -61.0129 62.913
rfingers 7.12502
rthumb -33.1156 35.9373
lclavicle 7.95139e-015 -2.06736e-014
lhumerus 12.2367 12.3472 -1.01079
lradius 25.9005
lwrist 6.87351
lhand 36.544 34.5585
lfingers 7.12502
lthumb 59.4738 408.88
rfemur -34.2424 -23.1362 6.32872
rtibia 57.5448
rfoot -19.2491 -14.8887
rtoes 4.34774
lfemur -31.2723 15.6957 -30.7004
ltibia 55.0199
lfoot -24.6742 6.89665
ltoes 16.3362
775
root -0.3818 14.2741 9.29306 -359.311 -20.1202 0.798216
lowerback 8.76067 7.58401 9.24618
upperback -4.38456 11.6975 4.70764
thorax -8.79162 5.26344 -1.83354
lowerneck -18.5134 -2.64119 -3.36163
upperneck 26.997 -2.44279 -0.932089
head 11.985 -1.56486 -0.160779
rclavicle -1.78906e-014 -7.63333e-014
rhumerus 17.713 46.5273 -65.5056
rradius 68.4799
rwrist 8.41761
rhand -61.0976 62.8506
rfingers 7.12502
rthumb -33.1962 35.892
lclavicle -1.78906e-014 -7.63333e-014
lhumerus 12.2156 12.7504 -0.986425
lradius 25.8493
lwrist 6.49774
lhand 36.4294 34.8108
lfingers 7.12502
lthumb 59.3753 409.231
rfemur -34.4182 -23.92 6.48501
rtibia 59.2499
rfoot -19.6868 -14.8647
rtoes 5.11469
lfemur -31.3061 16.0433 -31.0497
ltibia 55.1098
lfoot -24.7287 6.64181
ltoes 15.2479
776
root -0.323021 14.2633 9.2993 -359.401 -20.0177 0.867704
lowerback 8.84823 7.60063 9.14389
upperback -4.35219 11.7157 4.69628
thorax -8.8216 5.27685 -1.80688
lowerneck -18.5256 -2.61202 -3.36102
upperneck 26.9378 -2.41163 -0.892557
head 11.9643 -1.54483 -0.140681
rclavicle 4.69132e-014 2.38542e-014
rhumerus 17.6628 46.8324 -65.5925
rradius 68.6798
rwrist 8.35653
rhand -61.1752 62.8121
rfingers 7.12502
rthumb -33.2699 35.8693
lclavicle 4.69132e-014 2.38542e-014
lhumerus 12.1916 13.3308 -0.824378
lradius 25.7696
lwrist 5.83103
lhand 36.4327 35.0843
lfingers 7.12502
lthumb 59.3781 409.501
rfemur -34.666 -24.7331 6.68034
rtibia 61.0428
rfoot -19.9304 -14.7597
rtoes 6.07274
lfemur -31.3108 16.3401 -31.3906
ltibia 55.1281
lfoot -24.8184 6.36499
ltoes 15.2111
777
root -0.26511 14.2597 9.30594 -359.497 -19.8795 0.845895
lowerback 8.93595 7.62138 9.06489
upperback -4.32385 11.7473 4.73883
thorax -8.86335 5.29624 -1.7384
lowerneck -18.492 -2.56933 -3.27447
upperneck 26.9042 -2.36147 -0.950154
head 11.9414 -1.52041 -0.167977
rclavicle -7.55382e-015 -3.97569e-014
rhumerus 17.617 47.162 -65.5442
rradius 68.889
rwrist 8.2153
rhand -60.9799 62.4195
rfingers 7.12502
rthumb -33.0842 35.4371
lclavicle -7.55382e-015 -3.97569e-014
lhumerus 12.1427 13.3994 -0.828662
lradius 25.7399
lwrist 5.60481
lhand 36.3183 35.3691
lfingers 7.12502
lthumb 59.2795 409.884
rfemur -34.8692 -25.4859 6.93868
rtibia 62.9082
rfoot -19.8463 -15.0096
rtoes 8.23562
lfemur -31.2056 16.6493 -31.6125
ltibia 55.0459
lfoot -24.8758 6.12317
ltoes 14.6544
778
root -0.20628 14.256 9.31176 -359.563 -19.7169 0.806024
lowerback 9.02209 7.62369 9.01768
upperback -4.31179 11.7603 4.78988
thorax -8.91993 5.30375 -1.67595
lowerneck -18.4831 -2.53574 -3.27719
upperneck 26.9082 -2.31458 -0.940518
head 11.9407 -1.49807 -0.156385
rclavicle -9.78021e-014 -1.59028e-015
rhumerus 17.5808 47.5701 -65.4372
rradius 69.1666
rwrist 7.90774
rhand -60.9632 62.2264
rfingers 7.12502
rthumb -33.0683 35.2407
lclavicle -9.78021e-014 -1.59028e-015
lhumerus 12.0468 13.3052 -0.914085
lradius 25.7063
lwrist 5.40917
lhand 36.326 35.6432
lfingers 7.12502
lthumb 59.2862 410.152
rfemur -35.0375 -26.2639 7.23544
rtibia 64.7998
rfoot -19.6611 -15.1833
rtoes 9.01074
lfemur -31.1021 16.9217 -31.8247
ltibia 54.8905
lfoot -24.8999 5.87109
ltoes 13.9603
779
root -0.148379 14.2651 9.31856 -359.616 -19.5348 0.703637
lowerback 9.07949 7.59299 9.0376
upperback -4.27862 11.7303 4.83869
thorax -8.92625 5.28962 -1.63823
lowerneck -18.4908 -2.46662 -3.21598
upperneck 26.863 -2.22138 -0.981773
head 11.9218 -1.45481 -0.167063
rclavicle -2.3059e-014 -2.22639e-014
rhumerus 17.5819 47.9645 -65.4308
rradius 69.4121
rwrist 7.65966
rhand -60.8711 61.889
rfingers 7.12502
rthumb -32.9807 34.8847
lclavicle -2.3059e-014 -2.22639e-014
lhumerus 11.8953 13.2164 -1.08289
lradius 25.6846
lwrist 5.17256
lhand 36.4064 35.9455
lfingers 7.12502
lthumb 59.3555 410.385
rfemur -35.0693 -27.0263 7.62069
rtibia 66.6712
rfoot -19.6877 -15.2333
rtoes 9.69192
lfemur -30.888 17.0241 -31.9184
ltibia 54.6227
lfoot -24.888 5.416
ltoes 14.0611
780
root -0.0897044 14.2755 9.323 -359.615 -19.3232 0.639797
lowerback 9.09372 7.59122 9.0192
upperback -4.27569 11.7302 4.86304
thorax -8.94042 5.29092 -1.60581
lowerneck -18.5108 -2.44971 -3.22024
upperneck 26.8731 -2.19898 -0.964343
head 11.9298 -1.4426 -0.156608
rclavicle 3.85642e-014 -4.45278e-014
rhumerus 17.6277 48.3398 -65.2421
rradius 69.7214
rwrist 7.2431
rhand -60.9679 61.8979
rfingers 7.12502
rthumb -33.0728 34.9131
lclavicle 3.85642e-014 -4.45278e-014
lhumerus 11.7869 12.9126 -1.28388
lradius 25.6846
lwrist 5.12178
lhand 36.5691 36.3099
lfingers 7.12502
lthumb 59.4955 410.609
rfemur -35.1345 -27.7747 8.00066
rtibia 68.5897
rfoot -19.6374 -15.07
rtoes 10.9322
lfemur -30.7416 17.1202 -32.0774
ltibia 54.3144
lfoot -25.0823 4.55271
ltoes 16.0617
781
root -0.0333581 14.29 9.32815 -359.596 -19.1099 0.61214
lowerback 9.04571 7.59034 8.91959
upperback -4.28201 11.7137 4.88097
thorax -8.94336 5.29032 -1.5282
lowerneck -18.5447 -2.42914 -3.21488
upperneck 26.9071 -2.17326 -0.948617
head 11.9497 -1.42835 -0.148295
rclavicle -3.97569e-016 7.63333e-014
rhumerus 17.5911 48.6771 -65.1826
rradius 70.0036
rwrist 6.9329
rhand -60.9639 61.9492
rfingers 7.12502
rthumb -33.069 34.9636
lclavicle -3.97569e-016 7.63333e-014
lhumerus 11.7235 12.9377 -1.35031
lradius 25.644
lwrist 4.6916
lhand 37.0824 36.6236
lfingers 7.12502
lthumb 59.9358 410.471
rfemur -35.2453 -28.4363 8.35111
rtibia 70.5544
rfoot -19.6215 -14.8589
rtoes 12.1397
lfemur -30.6029 17.2396 -32.2947
ltibia 53.9537
lfoot -24.6246 4.54463
ltoes 13.7354
782
root 0.0195378 14.2996 9.33181 -359.524 -18.9104 0.56357
lowerback 8.97214 7.62419 8.79799
upperback -4.32804 11.742 4.8924
thorax -8.97524 5.3105 -1.45093
lowerneck -18.5043 -2.41953 -3.15677
upperneck 26.9259 -2.17787 -0.952216
head 11.9478 -1.4246 -0.159691
rclavicle -1.25632e-013 -5.08889e-014
rhumerus 17.4472 48.942 -65.1862
rradius 70.3096
rwrist 6.64996
rhand -60.907 61.6022
rfingers 7.12502
rthumb -33.0149 34.6051
lclavicle -1.25632e-013 -5.08889e-014
lhumerus 11.6998 12.6875 -1.49408
lradius 25.6304
lwrist 4.53164
lhand 37.8703 36.9871
lfingers 7.12502
lthumb 60.6075 410.113
rfemur -35.4316 -29.2073 8.80026
rtibia 72.5693
rfoot -19.3637 -14.726
rtoes 12.7596
lfemur -30.541 17.2436 -32.4833
ltibia 53.6281
lfoot -24.4211 4.08135
ltoes 14.3454
783
root 0.0707214 14.3061 9.33482 -359.428 -18.7063 0.559038
lowerback 8.86431 7.6461 8.69315
upperback -4.37205 11.7467 4.84899
thorax -8.97064 5.31871 -1.4303
lowerneck -18.5091 -2.39417 -3.07366
upperneck 26.9459 -2.17441 -0.927691
head 11.9551 -1.41091 -0.164121
rclavicle 1.92821e-013 1.59028e-014
rhumerus 17.446 49.2069 -65.1257
rradius 70.5894
rwrist 6.46712
rhand -60.5485 60.4071
rfingers 7.12502
rthumb -32.6738 33.3386
lclavicle 1.92821e-013 1.59028e-014
lhumerus 11.6617 12.4919 -1.71722
lradius 25.6445
lwrist 4.51158
lhand 40.6281 38.1363
lfingers 7.12502
lthumb 62.9138 408.444
rfemur -35.6449 -29.9941 9.26798
rtibia 74.5789
rfoot -18.9765 -14.5995
rtoes 12.6915
lfemur -30.5359 17.2586 -32.7483
ltibia 53.3157
lfoot -24.1874 4.01242
ltoes 13.3609
784
root 0.122733 14.3117 9.33761 -359.311 -18.4891 0.580401
lowerback 8.7281 7.58493 8.74358
upperback -4.39883 11.6405 4.67063
thorax -8.87771 5.26407 -1.60776
lowerneck -18.5734 -2.30438 -2.85004
upperneck 26.938 -2.1274 -0.885122
head 11.9606 -1.36072 -0.179164
rclavicle 2.82274e-014 2.38542e-014
rhumerus 17.5702 49.4962 -65.2447
rradius 70.901
rwrist 6.22955
rhand -60.5956 59.8864
rfingers 7.12502
rthumb -32.7187 32.8272
lclavicle 2.82274e-014 2.38542e-014
lhumerus 11.5477 12.5881 -2.08053
lradius 25.6634
lwrist 4.34618
lhand 41.3648 38.5415
lfingers 7.12502
lthumb 63.5164 408.01
rfemur -35.8394 -30.8748 9.65586
rtibia 76.5859
rfoot -18.6281 -13.9575
rtoes 14.0788
lfemur -30.5586 17.1754 -33.0387
ltibia 53.0229
lfoot -24.0337 3.78857
ltoes 13.1758
785
root 0.174326 14.3168 9.34105 -359.217 -18.2722 0.609033
lowerback 8.60086 7.60111 8.62091
upperback -4.42751 11.6315 4.62868
thorax -8.84914 5.26851 -1.57073
lowerneck -18.6275 -2.2869 -2.73856
upperneck 26.9394 -2.12019 -0.935852
head 11.9694 -1.35235 -0.216433
rclavicle 9.54166e-014 5.725e-014
rhumerus 17.627 49.8139 -65.0493
rradius 71.2718
rwrist 5.79656
rhand -60.4215 59.657
rfingers 7.12502
rthumb -32.5531 32.5636
lclavicle 9.54166e-014 5.725e-014
lhumerus 11.5042 12.5741 -2.15559
lradius 25.6605
lwrist 4.42145
lhand 41.8273 38.8547
lfingers 7.12502
lthumb 63.8915 407.775
rfemur -35.9403 -31.8246 10.0701
rtibia 78.4848
rfoot -17.8246 -13.3705
rtoes 13.9658
lfemur -30.5466 17.0877 -33.3261
ltibia 52.7072
lfoot -23.914 3.49058
ltoes 13.1452
786
root 0.226921 14.3275 9.34279 -359.089 -18.0629 0.625203
lowerback 8.42279 7.61676 8.46246
upperback -4.44108 11.6141 4.63866
thorax -8.7931 5.27499 -1.45215
lowerneck -18.737 -2.24726 -2.61964
upperneck 27.0397 -2.04539 -1.10411
head 12.0265 -1.32915 -0.290058
rclavicle 2.54444e-014 -3.65764e-014
rhumerus 17.757 50.1513 -64.7891
rradius 71.6544
rwrist 5.41593
rhand -60.3497 59.0513
rfingers 7.12502
rthumb -32.4847 31.9437
lclavicle 2.54444e-014 -3.65764e-014
lhumerus 11.4876 12.9923 -1.9424
lradius 25.5994
lwrist 4.20824
lhand 42.144 39.2871
lfingers 7.12502
lthumb 64.1469 407.823
rfemur -36.0341 -32.6193 10.5143
rtibia 80.2796
rfoot -17.0307 -13.1021
rtoes 13.5464
lfemur -30.537 16.9991 -33.5973
ltibia 52.3586
lfoot -23.7913 3.16401
ltoes 13.0412
787
root 0.27857 14.3413 9.34557 -359.029 -17.8462 0.613361
lowerback 8.31382 7.59628 8.38772
upperback -4.43061 11.5599 4.59547
thorax -8.72544 5.25697 -1.43495
lowerneck -18.7594 -2.19892 -2.51723
upperneck 26.9664 -2.01469 -1.08239
head 12.0004 -1.30118 -0.293809
rclavicle -2.38542e-015 -7.95139e-014
rhumerus 17.9481 50.4844 -64.5817
rradius 72.0317
rwrist 4.9873
rhand -60.1798 58.4928
rfingers 7.12502
rthumb -32.323 31.3521
lclavicle -2.38542e-015 -7.95139e-014
lhumerus 11.3898 12.9409 -2.11744
lradius 25.6457
lwrist 4.59007
lhand 42.2805 39.778
lfingers 7.12502
lthumb 64.2565 408.146
rfemur -35.9412 -33.2769 10.9498
rtibia 81.9197
rfoot -15.898 -12.7259
rtoes 12.7485
lfemur -30.4025 16.8578 -33.8054
ltibia 51.9678
lfoot -23.6579 2.90264
ltoes 13.0027
